# xmcd
#
# Track frame offsets: 
#        150
#        15045
#        28900
#        43902
#        60022
#        77620
#        96820
#        127175
#        146545
#        161360
#        176057
#        193142
#        206232
#        233160
#        247410
#        268492
#
# Disc length: 3818 seconds
#
# Revision: 0
# Processed by: cddbd v1.5.2PL0 Copyright (c) Steve Scherf et al.
# Submitted via: ExactAudioCopy v0.99pb5
#
DISCID=e50ee810
DTITLE=Mike Fenton - Best of Mke Fenton 1984-1996
DYEAR=1996
DGENRE=Bluegrass
TTITLE0=St. Anne's Reel
TTITLE1='Mid the Green Fields of Viginia
TTITLE2=Darlin' Corey
TTITLE3=My Privilege
TTITLE4=Gathering Flowers for the Master's Bouquet
TTITLE5=Old Country Baptisin'
TTITLE6=Crooked Stovepipe/Golden Slippers
TTITLE7=Seamus O'Brien
TTITLE8=Rock the Cradle Joe
TTITLE9=Dipper of Stars
TTITLE10=Endearing Young Charms
TTITLE11=The Bells of St. Mary's
TTITLE12=Bread and Fishes
TTITLE13=Jesu Joy of Man's Desire
TTITLE14=Planxty Fanny Power
TTITLE15=Pan-Diatonic Variations on 'Over the Rainbow'
EXTD=
EXTT0=
EXTT1=
EXTT2=
EXTT3=
EXTT4=
EXTT5=
EXTT6=
EXTT7=
EXTT8=
EXTT9=
EXTT10=
EXTT11=
EXTT12=
EXTT13=
EXTT14=
EXTT15=
PLAYORDER=
